<svg xmlns="http://www.w3.org/2000/svg" viewBox="0 0 1658.94 511.76"><defs><style>.cls-1{fill:#90ccff;}.cls-2{fill:#abe0ff;}.cls-3,.cls-4{fill:#fff;}.cls-3{opacity:0.31;}</style></defs><g id="Calque_2" data-name="Calque 2"><g id="Layer_1" data-name="Layer 1"><path class="cls-1" d="M1658.94,88.32h-22.13c-56.42-34.78-214.94-67-408.23-60.68-342,11.1-695.56-15.13-967.82,85.42,0,0-623.21,242.81,57.27,361s1112.64-71.51,904.33-152.34S1306.31,188,1555,156.89c73.89-9.24,105.25-25.38,103.86-43.21h0Z"/><path class="cls-2" d="M260.76,86.21S-362.45,329,318,447.16s1112.64-71.51,904.33-152.34S1306.31,161.13,1555,130,1570.58-10.32,1228.58.79,533-14.34,260.76,86.21Z"/><path class="cls-3" d="M399.83,91s-463.4,180.55,42.59,268.4,827.33-53.17,672.43-113.28,62.42-99.41,247.37-122.53,11.56-104.36-242.74-96.1S602.28,16.19,399.83,91Z"/><path class="cls-3" d="M488.34,103.68S158.19,232.31,518.67,294.9s627.89.44,517.54-42.38,49.23-134.91,261.93-140.82c132.74-3.69-116.21-68.9-297.38-63S632.57,50.41,488.34,103.68Z"/><path class="cls-4" d="M451,436.58s304.85,61,519.72-6.63-100.8,13.27-216.2,10.61S345.56,402.8,451,436.58Z"/><ellipse class="cls-4" cx="373.66" cy="415.98" rx="10.34" ry="32.33" transform="translate(-98.97 714.77) rotate(-80.37)"/><path class="cls-4" d="M430.7,440.72c-.47,2.77-7.87,3.82-16.53,2.35s-15.3-4.91-14.83-7.68,7.87-3.82,16.53-2.35S431.17,438,430.7,440.72Z"/><path class="cls-4" d="M1300.44,160.94s153.61-29.54,232.39-38.08,9.85-5.91-79.43,3.94S1241.35,167.5,1300.44,160.94Z"/></g></g></svg>