<svg xmlns="http://www.w3.org/2000/svg" xmlns:xlink="http://www.w3.org/1999/xlink" viewBox="0 0 1840.92 1571.14"><defs><style>.cls-1{fill:url(#radial-gradient);}.cls-2{fill:url(#radial-gradient-2);}.cls-3{fill:url(#radial-gradient-3);}.cls-4{fill:url(#radial-gradient-4);}.cls-5{fill:url(#radial-gradient-5);}.cls-6{fill:url(#radial-gradient-6);}.cls-7{fill:url(#radial-gradient-7);}.cls-8{fill:url(#radial-gradient-8);}.cls-9{fill:url(#radial-gradient-9);}.cls-10{fill:url(#radial-gradient-10);}</style><radialGradient id="radial-gradient" cx="942.08" cy="865.17" r="789.46" gradientUnits="userSpaceOnUse"><stop offset="0" stop-color="#27aae1"/><stop offset="1" stop-color="#1c75bc"/></radialGradient><radialGradient id="radial-gradient-2" cx="735.29" cy="28.77" r="24.2" xlink:href="#radial-gradient"/><radialGradient id="radial-gradient-3" cx="809.03" cy="115.99" r="35.75" xlink:href="#radial-gradient"/><radialGradient id="radial-gradient-4" cx="1166.25" cy="237.23" r="23.55" xlink:href="#radial-gradient"/><radialGradient id="radial-gradient-5" cx="1594.62" cy="258.11" r="25.55" xlink:href="#radial-gradient"/><radialGradient id="radial-gradient-6" cx="1824.3" cy="1491.62" r="25.52" xlink:href="#radial-gradient"/><radialGradient id="radial-gradient-7" cx="21.12" cy="1449.09" r="23.39" xlink:href="#radial-gradient"/><radialGradient id="radial-gradient-8" cx="114.95" cy="1336.57" r="24.37" xlink:href="#radial-gradient"/><radialGradient id="radial-gradient-9" cx="468.98" cy="897.57" r="25.29" xlink:href="#radial-gradient"/><radialGradient id="radial-gradient-10" cx="518.83" cy="628.67" r="27.42" xlink:href="#radial-gradient"/></defs><g id="Calque_2" data-name="Calque 2"><g id="Layer_1" data-name="Layer 1"><path class="cls-1" d="M893.32,326s-12-29.87-34.52-81.85-3.1-81.46,26.38-84.56,52,13.19,45.77,45.77-3.88,50.43,10.86,75.25,9.82,46.55,14,76,12.41,45.51,36.72,52.75,27.41-8.27,44,11.9,47.59,23.27,62.84-2.07,43.19-31.55,52-15.26,21,33.88,41.12,22,20.43-47.06,16.55-74.47,6.72-57.93,41.63-49.39,43.44,33.36,30.77,56.63S1248,374,1246.43,397.22s26.64,24.31,44.74,18.88S1329.44,435,1310.05,457s-8.76,34.91,7.9,41.63,41,7,58.3-28.7,71.89-13.45,68,20.68-45.77,14.74-48.36,44,6.47,51.72,39.31,68,105.51,15.77,178.43-12.16S1692,537.64,1717.85,542s20.17-6.72,31.81-17.84,44.74-13.7,55.08,18.62-16.29,46.81-48.61,44.74-54.05-5.18-92.58,6.72-118.18,25.08-174,68-71.37,69.3-55.85,105.51,54.3,12.93,82.75-7.76,66.71-26.38,73.44,0-52.24,34.65-49.65,58.44,9.82,53.79-39.31,55.34-69.82,32.07-51.72,52.24S1519,946.22,1549,947.77s22.76,19.14,49.65,25.86,60.51,8.28,91.54-15,54.83-9.83,64.13,13.45-15,51.2-76.54,38.27-109.13-36.72-149-8.27-83.79,54.3-74.48,88.44,53.79,27.41,106.55,58.44,121,78.09,162.91,113,40,61.68,14.74,71.76-45.77-17.06-69-46.54-50.43-62.07-81.07-87.28-88.83-59-123-62.84-75.25-3.1-81.45,44.61,37.62,50.43,62.83,61.29,38.41,22.5,41.12,47.71-25.6,39.56-54.3,16.29-77.19-90.77-127.62-100.08-71.37,17.46-66.72,44.22,29.09,57.8-2.71,78-54.31-16.68-47.71-55.08-20.17-51.59-45.78-48.1-51.2,21.72-43.83,57,18.23,68.27-10.08,82.62-43.83-11.64-51.2-29.48-31-20.56-36.47,14S955,1392.3,938.7,1362.43s-17.84-50.82-16.67-82.24-14.36-53.91-44.61-43.83-65.43,59-77.84,86.37-38.27,37.76-47.58,72.93-34.65,63.61-31.55,91.54,19.65,62.58,4.14,77.32-69.82,5.82-57-36.46,40.73-54.31,49.65-88,31.42-99.3,50-126.46,50.81-62.83,43-99.3-31.81-76.8-71.76-78.35S663.3,1171.2,628,1186.32s-64,62.46-88,96.2-48.49,71.76-72.15,85-28.31,38.79-30.25,62.84-17.46,41.5-48.1,40.73-48.88-53.53-7-76,53.91-59.35,78.35-81.07,42.28-74.86,74.86-92.7,55.86-14,80.3-56.25,34.91-62.06,21.72-101.24-58.57-30.26-71-13.19S538,1094,528.31,1124.26s-82.62,31-76.41-13.57,69-60.13,87.27-86.5,24.05-27.8,37.5-34.27,3.1-24.82,6.72-35.94,15-29.74,37.5-37,27.86-27.61,15.06-37.89-30.64,4.46-64,3.11-58.12-28.32-29.93-49,58.44-16.55,52.49-33.36-28.44-34.91-72.4-34.39-88.44-16.29-125.68,7.76-95,39.56-121,19.78-39.57-86.11,17.84-96.2,64,12.42,149,14.74,152.06,7,175.33-36.85,31.81-104-20.95-151.27S450,407.05,340.57,376.79s-128-30.64-160.58-30.64-70.6.77-96.2-42.67,27.54-84.56,79.52-56.24S270,289.52,301.78,304.64,365,343,403.8,360.5s59.74,21.92,61.29,4.65-19.4-13.77-14.55-36.07,34.33-24.44,51.2-1.55,23.21,42,71.83,75.64,75,43.83,93.61,24.05-2.33-50,29.87-64,78-1.17,93.87,43.83,35.68,49.65,67.49,58.57S926.68,454,925.52,421.4,893.32,326,893.32,326Z"/><path class="cls-2" d="M731.57,55.23s-22.5-15.52-12-43.06S758,9.07,753.29,33.7,737.16,60.44,731.57,55.23Z"/><path class="cls-3" d="M783.55,121.3s-4.66-18.62,2.07-37.24,37-13.19,46.28,16.81,1.56,47.32-8.79,55.86S784.64,144.87,783.55,121.3Z"/><path class="cls-4" d="M1182.11,231.91s4.07,15.13-2.72,27.16-28.51,7.75-29.87-10.87,1-31,10.87-37.81S1179,217.76,1182.11,231.91Z"/><path class="cls-5" d="M1614.41,252.15s2.72,20.49-11.05,32.32-33-6.4-27.93-27.93,12.22-28.89,23.86-28.51S1614.26,245.43,1614.41,252.15Z"/><path class="cls-6" d="M1831.12,1460.82s-14.22-5.17-19.4,5.69-6.2,37.76,1.81,51.46,22.5.26,24.57-15.51S1845.86,1465.48,1831.12,1460.82Z"/><path class="cls-7" d="M37.63,1433.8s7.37,9.7,3.49,25.6-41.5,24-41.12,0S17.07,1408.59,37.63,1433.8Z"/><path class="cls-8" d="M94.65,1349.89s-9.57-17.33,3.1-28.71,36.72-13.7,40.08-1-2.84,31-18.87,38.79S96.74,1355.05,94.65,1349.89Z"/><path class="cls-9" d="M454.87,884.41s5.17-14.22,14.23-16,21.2,7.5,20.17,29.74-11.64,26.89-20.69,28.7S438.06,914.41,454.87,884.41Z"/><path class="cls-10" d="M540.34,615s7,17.65,0,31.61-38.21,17.46-43.45,1.55-3.29-36.07,10.48-45.38S534.71,601.38,540.34,615Z"/></g></g></svg>